<svg width="124" height="37" fill="none" xmlns="http://www.w3.org/2000/svg"><path id="logo" fill="#FFF" fill-opacity="0" d="M0 0h124v37H0z"/><path id="NAMU" d="M51.977 11.004V6.216h3.492v25.2h-3.492v-4.788c-2.088 2.916-5.328 5.004-9.036 5.004-7.272 0-12.528-5.4-12.528-12.816S35.669 6 42.941 6c3.708 0 6.948 2.088 9.036 5.004ZM21.96 26.16V6.216h3.6v25.2H21.6L6.84 10.932v20.484h-3.6v-25.2h4.428L21.96 26.16ZM91.83 6.216h-5.147l-9.72 20.952-9.756-20.952H61.95v25.2h3.6v-20.52l9.504 20.52h3.6l9.576-20.7v20.7h3.6v-25.2Zm28.072 14.904c0 6.084-4.715 10.656-10.98 10.656-6.264 0-10.98-4.572-10.98-10.656V6.216h3.6V21.12c0 4.104 3.168 7.2 7.38 7.2 4.213 0 7.38-3.096 7.38-7.2V6.216h3.6V21.12Zm-85.709-2.304c0 5.508 3.744 9.504 8.892 9.504s8.892-3.996 8.892-9.504c0-5.508-3.744-9.504-8.892-9.504s-8.892 3.996-8.892 9.504Z" fill="#F1F5F4" fill-opacity="1" fill-rule="evenodd"/></svg>